<?xml version="1.0" encoding="UTF-8"?>
<svg xmlns="http://www.w3.org/2000/svg" viewBox="0 0 99.9 99.99">
  <defs>
    <linearGradient id="linear-gradient" x1="-885.02" y1="606.28" x2="-882.16" y2="603.41" gradientTransform="translate(32168.55 -20476.46) scale(36.35 33.94)" gradientUnits="userSpaceOnUse">
      <stop offset="0" stop-color="#17ead9"/>
      <stop offset="1" stop-color="#6078ea"/>
    </linearGradient>
  </defs>
  
  <path fill="url(#linear-gradient)" d="M35.89.72c-5.61,1.27-11,3.65-15.54,6.91C6.98,17.21-.56,33.06.03,50.3c.3,9.21,2.84,17.64,7.57,25.24,7.84,12.55,19.43,20.66,34.03,23.8,2.55.55,3.89.66,8.91.66,6.31,0,7.86-.2,13.07-1.58,8.43-2.27,17.12-7.22,23.83-13.64,4.86-4.6,7.73-8.52,10.04-13.73,1.88-4.14,2.39-6.56,2.42-11.19.03-4.37-.4-6.45-2.17-10.19-2.42-5.15-7.76-8.4-12.75-7.8-3.14.37-5.48,1.55-8.02,4.06l-1.48,1.47,1.42,1.81c.78,1.01,1.56,2.27,1.72,2.82.46,1.47.19,3.86-.59,5.09-.86,1.38-3.38,3.17-5.1,3.6-1.96.52-7.11.2-9.47-.55-7-2.22-12.27-7.6-14.55-14.85-1.05-3.28-1.21-7.91-.38-10.27.75-2.16,2.04-3.4,3.52-3.4.59,0,1.32.14,1.61.29.75.46,1.32,1.81,1.32,3.28,0,1.09-.16,1.5-.91,2.42-.86,1.01-.89,1.12-.56,1.96.48,1.24,2.39,2.88,4,3.45,2.84,1.01,7.17.32,9.9-1.64,1.64-1.15,3.27-3.37,4.37-5.87,1.29-2.96,1.72-5.12,1.72-8.55,0-13.35-10.31-24.29-25.15-26.67-3.41-.55-8.94-.37-12.45.4ZM48.93,7.34c2.95.69,6.58,2.07,8.45,3.25,2.42,1.5,5.99,5.21,7.25,7.51,1.61,2.96,2.28,5.64,2.28,9.24-.03,2.7-.11,3.22-.78,4.83-.83,1.93-2.68,3.97-4.08,4.55l-.78.29v-2.3c0-2.07-.11-2.56-.89-4.26-1.88-4.11-4.67-5.84-8.99-5.67-4.8.23-7.89,3.31-9.47,9.5-.67,2.53-.67,7.68,0,10.76.97,4.58,4.11,10.47,7.41,13.98,3.25,3.45,8.11,6.5,12.48,7.91,2.01.63,3.11.78,6.58.89,4.78.17,7.06-.26,10.28-1.96,2.12-1.09,4.62-3.63,5.31-5.38.64-1.55,1.34-5.41,1.21-6.53-.05-.49-.11-1.06-.13-1.32,0-.23-.43-1.18-.94-2.07-.51-.86-.83-1.67-.75-1.76s.81-.17,1.64-.17c2.76,0,6.01,2.3,7.43,5.21,1.15,2.42,1.5,6.36.78,9.32l-.35,1.44-.03-2.85c-.03-2.27-.13-3.14-.59-4.11-.46-1.04-1.61-2.1-2.25-2.1-.08,0-.13,1.12-.13,2.5-.03,5.06-.83,7.48-3.54,10.45-2.12,2.36-3.6,3.57-6.01,4.86-3.09,1.7-5.77,2.39-9.77,2.53-4.62.2-8.35-.46-13.15-2.27-9.88-3.74-17.23-13.06-18.68-23.6-.21-1.64-.51-3.37-.67-3.86-.24-.83-1.15-1.55-1.96-1.55-.64,0-1.77,1.18-2.01,2.1-.43,1.61-.35-4.26.11-7.08.75-4.46,1.58-6.88,3.73-10.68.54-.95.97-2.04.97-2.42,0-.83-1.37-2.36-2.15-2.36-1.77,0-4.48,3.08-6.39,7.25-4.32,9.38-3.86,20.37,1.26,31.28.94,1.99,4.29,6.88,6.12,8.89,3.38,3.77,7.51,7.05,11.78,9.32,1.23.66,2.25,1.27,2.25,1.38,0,.23-1.64.92-3.76,1.55-1.93.58-6.23.86-7.84.52-1.05-.23-1.29-.2-1.42.17-.08.26,0,.55.19.66s.27.29.19.37-.48-.17-.89-.55c-.43-.4-.89-.72-.99-.72-.46,0-4.72-3.42-5.53-4.46-.48-.6-1.26-1.38-1.74-1.76-2.07-1.64-3.84-.06-2.9,2.59.13.4.16.75.05.75-.13,0-1.07-.78-2.15-1.76-2.23-2.01-5.42-5.87-6.44-7.74-.38-.72-1.07-1.78-1.56-2.39s-.94-1.47-1.05-1.87c-.11-.43-.7-1.87-1.34-3.22-1.13-2.42-1.58-4.2-2.68-10.59-.51-3.08-.51-6.76.03-9.32.48-2.3.3-3.19-.81-3.71-.54-.29-.83-.23-1.58.29-.99.66-1.61,1.78-2.36,4.35l-.46,1.58-.03-1.73c-.03-3.91,1.69-10.85,3.86-15.6,2.28-4.95,6.2-10.36,9.9-13.58,5.37-4.72,11.11-7.68,17.28-8.98,3.03-.63,8.08-.55,11.19.17Z"/>
</svg>
