<svg width="815" height="1000" viewBox="0 0 815 1000" fill="none" xmlns="http://www.w3.org/2000/svg">
<mask id="path-1-inside-1_147_114" fill="white">
<path d="M297.081 250.864C282.331 246.972 266.891 244.4 250.8 244.4C126.4 244.4 0 347.5 0 541.9C0 634.985 27.5468 731.904 66.5125 809.1C78.2814 832.416 91.0921 853.932 104.5 873C154.4 943 197.8 1000 260 1000C289.493 1000 311.116 990.827 333.858 981.18C359.078 970.482 385.673 959.2 425.9 959.2C466.558 959.2 490.853 969.796 514.275 980.013C536.075 989.521 557.12 998.7 589.9 998.7C657.9 998.7 702.6 937.2 745.4 875.6C754.879 861.776 763.27 848.003 770.638 834.775C786.999 805.401 798.313 778.714 805.29 760.131C811.08 744.707 813.882 734.865 814.1 733.7C810.2 732.4 679.9 679.9 679.9 531.5C679.9 515.977 681.399 501.487 684.045 488C698.111 416.293 744.587 372.93 770.502 353.279C777.233 348.174 782.578 344.669 785.606 342.684C786.18 342.307 786.671 341.985 787.072 341.717C787.54 341.405 787.886 341.166 788.1 341C783.187 333.959 778.089 327.418 772.847 321.34C750.754 295.728 726.109 278.356 702.066 266.576C674.382 253.011 647.496 246.86 626.228 244.078C610.217 241.984 597.389 241.8 589.8 241.8C546.2 241.8 507.171 257.263 474.371 270.259C452.978 278.735 434.234 286.161 418.6 287.563C416.861 287.719 415.161 287.8 413.5 287.8C407.463 287.8 401.139 286.882 394.535 285.312C381.068 282.112 366.438 276.204 350.712 269.854C336.593 264.152 321.591 258.094 305.754 253.319C302.89 252.455 299.999 251.634 297.081 250.864Z"/>
<path d="M406.557 178.035C406.835 176.666 407.129 175.3 407.437 173.938C410.127 162.072 413.955 150.486 418.6 139.416C420.347 135.254 422.209 131.165 424.17 127.161C425.7 124.036 427.291 120.963 428.933 117.949C437.632 101.979 447.789 87.6351 458.2 75.8C468.44 63.9236 480.582 52.8668 493.875 43.0698C505.776 34.2981 518.598 26.5362 531.803 20.1C537.364 17.3898 542.992 14.9146 548.647 12.698C567.735 5.21692 587.136 0.682038 605.3 0C606.6 5.8 607.2 13 607.2 20.1C607.2 25.0017 606.998 29.9033 606.606 34.7925C604.272 63.9071 595.189 92.5768 581.747 118.152C579.237 122.927 576.576 127.595 573.777 132.137C567.792 141.854 561.182 150.998 554.1 159.4C543.355 172.717 530.055 184.921 515.436 195.325C509.266 199.716 502.86 203.787 496.313 207.485C493.976 208.805 491.621 210.077 489.252 211.3C465.688 223.463 440.752 230.7 418.6 230.7C416.876 230.7 415.151 230.623 413.5 230.498C410.171 230.247 407.139 229.801 405 229.4C404.4 226.9 403.1 219.1 403.1 211.3C403.1 200.166 404.324 189.064 406.529 178.173L406.557 178.035Z"/>
</mask>
<path d="M542.365 404.603L538.685 394.769L538.631 394.789L538.578 394.81L542.365 404.603ZM533.611 408.049L537.298 417.88L537.388 417.846L537.477 417.811L533.611 408.049ZM496.04 422.316L492.617 412.39L492.617 412.39L496.04 422.316ZM331.823 423.017L341.91 425.934L344.7 416.286L335.186 413.07L331.823 423.017ZM292.019 407.831L295.959 398.098L295.959 398.098L292.019 407.831ZM285.843 405.342L289.73 395.588L289.73 395.588L285.843 405.342ZM187.958 422.978L180.313 415.78L180.313 415.78L187.958 422.978ZM279.2 841.33L275.113 831.658L275.113 831.658L279.2 841.33ZM571.702 841.313L575.892 831.686L575.892 831.686L571.702 841.313ZM580.294 845.031L576.159 854.683L582.885 857.564L587.917 852.252L580.294 845.031ZM594.405 828.376L586.131 821.911L586.131 821.911L594.405 828.376ZM621.931 790.319L630.553 796.312L630.576 796.279L630.598 796.246L621.931 790.319ZM627.658 781.667L636.499 787.333L640.902 780.461L635.33 774.499L627.658 781.667ZM292.004 407.825L288.064 417.558L288.064 417.558L292.004 407.825ZM533.609 408.049L529.922 398.218L529.832 398.252L529.743 398.287L533.609 408.049ZM431 671L432.185 681.433L444.372 680.049L441.126 668.221L431 671ZM406 576.5L416.461 575.593L415.681 566.602L406.675 566.022L406 576.5ZM530.873 559.341L520.399 560.079L520.399 560.079L530.873 559.341ZM530.042 520.909L519.545 520.625L519.545 520.625L530.042 520.909ZM472.582 812.136L471.193 822.544L471.193 822.544L472.582 812.136ZM566.319 838.985L562.179 848.634L562.179 848.634L566.319 838.985ZM614.04 766.265L622.095 759.53L622.095 759.53L614.04 766.265ZM607.739 758.521L615.972 752.005L615.972 752.005L607.739 758.521ZM564.014 688.054L554.511 692.521L554.511 692.521L564.014 688.054ZM331.823 569.391L322.016 573.142L324.028 578.402L329.522 579.636L331.823 569.391ZM316.5 476L306.413 473.083L306.138 474.036L306.045 475.024L316.5 476ZM196.604 733.7L201.869 742.784L210.277 737.911L206.068 729.152L196.604 733.7ZM532.37 488L528.474 478.249L522.657 480.574L521.939 486.797L532.37 488ZM537.477 417.811C540.961 416.431 543.919 415.26 546.153 414.396L538.578 394.81C536.247 395.711 533.198 396.919 529.745 398.286L537.477 417.811ZM413.5 448.2C451.061 448.2 483.078 437.894 499.463 432.243L492.617 412.39C476.785 417.85 447.463 427.2 413.5 427.2V448.2ZM288.079 417.564C298.381 421.734 314.217 428.148 328.46 432.964L335.186 413.07C321.626 408.485 306.363 402.31 295.959 398.098L288.079 417.564ZM250.8 404.8C250.505 404.8 255.794 404.669 281.956 415.096L289.73 395.588C263.708 385.217 254.995 383.8 250.8 383.8V404.8ZM195.602 430.176C212.552 412.175 233.03 404.8 250.8 404.8V383.8C227.22 383.8 201.216 393.581 180.313 415.78L195.602 430.176ZM160.5 541.8C160.5 480.589 179.681 447.085 195.602 430.176L180.313 415.78C160.325 437.009 139.5 475.849 139.5 541.8H160.5ZM275.113 831.658C272.284 832.854 269.797 833.892 267.615 834.793L275.634 854.202C277.871 853.278 280.41 852.218 283.287 851.002L275.113 831.658ZM425.9 798.6C354.767 798.6 304.714 819.149 275.113 831.658L283.287 851.002C312.147 838.806 359.054 819.6 425.9 819.6V798.6ZM575.892 831.686C546.211 818.767 498.083 798.6 425.9 798.6V819.6C493.785 819.6 538.763 838.428 567.511 850.941L575.892 831.686ZM584.429 835.38C582.253 834.447 579.479 833.247 575.892 831.686L567.511 850.941C571.114 852.509 573.93 853.728 576.159 854.683L584.429 835.38ZM586.131 821.911C580.621 828.964 576.185 834.101 572.671 837.81L587.917 852.252C591.995 847.948 596.867 842.28 602.68 834.84L586.131 821.911ZM613.309 784.327C602.744 799.529 594.276 811.486 586.131 821.911L602.68 834.84C611.223 823.904 619.988 811.514 630.553 796.312L613.309 784.327ZM618.817 776.002C617.023 778.803 615.172 781.603 613.264 784.392L630.598 796.246C632.629 793.277 634.595 790.303 636.499 787.333L618.817 776.002ZM519.4 531.4C519.4 647.889 567.886 733.081 619.986 788.836L635.33 774.499C586.123 721.84 540.4 641.57 540.4 531.4H519.4ZM281.956 415.096C283.656 415.773 285.707 416.604 288.064 417.558L295.944 398.092C293.605 397.145 291.495 396.291 289.73 395.588L281.956 415.096ZM288.073 417.562L288.088 417.568L295.95 398.095L295.935 398.089L288.073 417.562ZM499.463 432.243C511.678 428.03 526.904 421.998 537.475 417.812L529.743 398.287C519.053 402.52 504.296 408.362 492.617 412.39L499.463 432.243ZM537.296 417.881L537.298 417.88L529.924 398.217L529.922 398.218L537.296 417.881ZM288.064 417.558C288.07 417.56 288.075 417.562 288.078 417.564C288.081 417.565 288.084 417.566 288.085 417.566C288.087 417.567 288.086 417.567 288.086 417.566C288.085 417.566 288.082 417.565 288.079 417.564L295.959 398.098C295.953 398.096 295.948 398.094 295.945 398.093C295.942 398.091 295.939 398.09 295.938 398.09C295.936 398.089 295.937 398.089 295.938 398.09C295.939 398.09 295.941 398.091 295.944 398.092L288.064 417.558ZM395.539 577.407C397.027 594.565 401.604 611.974 406.595 628.249C411.755 645.075 417.018 659.729 420.874 673.779L441.126 668.221C437.223 654.002 431.377 637.435 426.672 622.092C421.798 606.199 417.753 590.493 416.461 575.593L395.539 577.407ZM519.4 531.4C519.4 541.175 519.742 550.734 520.399 560.079L541.347 558.604C540.725 549.752 540.4 540.685 540.4 531.4H519.4ZM519.545 520.625C519.449 524.186 519.4 527.778 519.4 531.4H540.4C540.4 527.968 540.447 524.565 540.538 521.193L519.545 520.625ZM396.745 447.564C402.167 447.972 407.761 448.2 413.5 448.2V427.2C408.317 427.2 403.249 426.994 398.318 426.623L396.745 447.564ZM473.97 801.729C459.268 799.767 443.272 798.6 425.9 798.6V819.6C442.326 819.6 457.394 820.703 471.193 822.544L473.97 801.729ZM570.46 829.336C548.184 819.777 516.637 807.421 473.97 801.729L471.193 822.544C511.139 827.873 540.682 839.409 562.179 848.634L570.46 829.336ZM575.892 831.686C574.152 830.928 572.339 830.142 570.46 829.336L562.179 848.634C564.011 849.42 565.787 850.19 567.511 850.941L575.892 831.686ZM605.985 773.001C610.6 778.521 615.279 783.799 619.986 788.836L635.33 774.499C630.879 769.736 626.457 764.746 622.095 759.53L605.985 773.001ZM599.506 765.038C601.649 767.746 603.81 770.4 605.985 773.001L622.095 759.53C620.039 757.072 617.997 754.564 615.972 752.005L599.506 765.038ZM554.511 692.521C567.412 719.969 582.946 744.116 599.506 765.038L615.972 752.005C600.324 732.235 585.673 709.452 573.517 683.588L554.511 692.521ZM520.399 560.079C523.951 610.543 536.708 654.643 554.511 692.521L573.517 683.588C556.758 647.933 544.708 606.353 541.347 558.604L520.399 560.079ZM329.522 579.636C347.605 583.696 383.897 585.598 405.325 586.978L406.675 566.022C383.984 564.56 350.117 562.738 334.124 559.146L329.522 579.636ZM341.63 565.64C335.396 549.34 323.977 508.883 326.955 476.976L306.045 475.024C302.623 511.704 315.368 555.759 322.016 573.142L341.63 565.64ZM466.812 262.971C447.191 283.322 406.164 347.837 395.574 436.317L416.426 438.812C426.479 354.813 465.529 294.557 481.93 277.547L466.812 262.971ZM552.32 389.666L538.685 394.769L546.046 414.437L559.68 409.334L552.32 389.666ZM321.736 420.1L306.413 473.083L326.587 478.917L341.91 425.934L321.736 420.1ZM429.815 660.567L315.315 673.567L317.685 694.433L432.185 681.433L429.815 660.567ZM206.068 729.152C179.58 674.034 160.5 604.986 160.5 541.8H139.5C139.5 608.762 159.588 680.918 187.14 738.248L206.068 729.152ZM521.939 486.797C520.676 497.75 519.859 509.026 519.545 520.625L540.538 521.193C540.835 510.212 541.608 499.549 542.801 489.203L521.939 486.797ZM688.549 478.515C663.382 466.565 597.626 450.622 528.474 478.249L536.266 497.751C598.907 472.724 658.504 487.496 679.541 497.485L688.549 478.515ZM191.339 724.616L61.2472 800.015L71.7777 818.184L201.869 742.784L191.339 724.616ZM297.081 250.864L291.723 271.169L291.723 271.169L297.081 250.864ZM104.5 873L87.3217 885.079L87.3607 885.135L87.4001 885.19L104.5 873ZM333.858 981.18L325.657 961.848L325.657 961.848L333.858 981.18ZM514.275 980.013L505.88 999.261L505.88 999.261L514.275 980.013ZM745.4 875.6L762.646 887.582L762.683 887.529L762.719 887.476L745.4 875.6ZM770.638 834.775L752.292 824.557L752.292 824.557L770.638 834.775ZM805.29 760.131L785.629 752.75L785.629 752.75L805.29 760.131ZM814.1 733.7L834.74 737.57L838.115 719.569L820.741 713.778L814.1 733.7ZM770.502 353.279L757.813 336.546L757.813 336.546L770.502 353.279ZM785.606 342.684L797.122 360.244L797.122 360.244L785.606 342.684ZM787.072 341.717L798.731 359.183L798.731 359.183L787.072 341.717ZM788.1 341L800.974 357.591L816.744 345.353L805.322 328.984L788.1 341ZM772.847 321.34L756.945 335.057L756.945 335.057L772.847 321.34ZM702.066 266.576L711.306 247.718L711.306 247.718L702.066 266.576ZM626.228 244.078L628.951 223.256L628.951 223.256L626.228 244.078ZM474.371 270.259L466.635 250.736L466.635 250.736L474.371 270.259ZM418.6 287.563L420.475 308.479L420.475 308.479L418.6 287.563ZM394.535 285.312L399.39 264.881L399.39 264.881L394.535 285.312ZM350.712 269.854L358.576 250.382L358.576 250.382L350.712 269.854ZM305.754 253.319L299.692 273.425L299.692 273.425L305.754 253.319ZM407.437 173.938L427.918 178.58L427.918 178.58L407.437 173.938ZM406.557 178.035L385.978 173.852L385.976 173.86L406.557 178.035ZM406.529 178.173L385.948 173.999L385.946 174.007L406.529 178.173ZM405 229.4L384.58 234.301L387.756 247.533L401.13 250.04L405 229.4ZM413.5 230.498L415.082 209.558L415.082 209.558L413.5 230.498ZM489.252 211.3L479.62 192.639L479.62 192.639L489.252 211.3ZM496.313 207.485L485.985 189.2L485.985 189.2L496.313 207.485ZM515.436 195.325L503.26 178.215L503.26 178.215L515.436 195.325ZM554.1 159.4L538.042 145.866L537.898 146.038L537.756 146.213L554.1 159.4ZM573.777 132.137L555.898 121.123L555.898 121.123L573.777 132.137ZM581.747 118.152L600.336 127.922L600.336 127.922L581.747 118.152ZM606.606 34.7925L585.674 33.1143L585.674 33.1143L606.606 34.7925ZM605.3 0L625.792 -4.5929L621.971 -21.6408L604.512 -20.9852L605.3 0ZM548.647 12.698L556.31 32.25L556.31 32.25L548.647 12.698ZM531.803 20.1L522.602 1.22297L522.602 1.22298L531.803 20.1ZM493.875 43.0698L506.334 59.9742L506.334 59.9742L493.875 43.0698ZM458.2 75.8L473.968 89.6699L474.037 89.5919L474.104 89.5132L458.2 75.8ZM428.933 117.949L410.492 107.903L410.492 107.903L428.933 117.949ZM424.17 127.161L443.029 136.398L443.029 136.398L424.17 127.161ZM418.6 139.416L399.236 131.29L399.236 131.29L418.6 139.416ZM684.045 488L704.652 492.042L684.045 488ZM66.5125 809.1L85.2596 799.637L85.2596 799.637L66.5125 809.1ZM250.8 265.4C264.65 265.4 278.246 267.613 291.723 271.169L302.438 230.559C286.415 226.331 269.133 223.4 250.8 223.4V265.4ZM21 541.9C21 357.889 139.171 265.4 250.8 265.4V223.4C113.629 223.4 -21 337.111 -21 541.9H21ZM260 979C236.077 979 214.535 968.276 191.898 947.335C168.88 926.04 146.75 896.091 121.6 860.81L87.4001 885.19C112.15 919.909 136.67 953.46 163.377 978.165C190.465 1003.22 221.723 1021 260 1021V979ZM325.657 961.848C302.825 971.533 284.763 979 260 979V1021C294.222 1021 319.408 1010.12 342.058 1000.51L325.657 961.848ZM425.9 938.2C381.15 938.2 351.217 951.005 325.657 961.848L342.058 1000.51C366.939 989.958 390.196 980.2 425.9 980.2V938.2ZM522.671 960.764C498.61 950.269 471.04 938.2 425.9 938.2V980.2C462.077 980.2 483.095 989.323 505.88 999.261L522.671 960.764ZM589.9 977.7C561.767 977.7 544.141 970.128 522.671 960.764L505.88 999.261C528.01 1008.91 552.473 1019.7 589.9 1019.7V977.7ZM728.154 863.617C706.563 894.693 685.927 923.546 662.864 944.811C640.187 965.722 616.858 977.7 589.9 977.7V1019.7C630.942 1019.7 663.963 1000.93 691.336 975.689C718.323 950.804 741.438 918.107 762.646 887.582L728.154 863.617ZM752.292 824.557C745.204 837.281 737.152 850.494 728.081 863.724L762.719 887.476C772.606 873.058 781.336 858.725 788.984 844.994L752.292 824.557ZM785.629 752.75C778.939 770.572 768.044 796.275 752.292 824.557L788.984 844.994C805.954 814.526 817.688 786.857 824.95 767.511L785.629 752.75ZM793.46 729.83C793.626 728.942 793.721 728.766 793.272 730.319C792.951 731.428 792.459 733.058 791.784 735.166C790.437 739.375 788.402 745.365 785.629 752.75L824.95 767.511C830.717 752.15 834.145 740.745 834.74 737.57L793.46 729.83ZM658.9 531.5C658.9 612.617 694.759 668.019 730.971 702.889C766.631 737.228 803.034 752.147 807.459 753.622L820.741 713.778C821.266 713.953 790.569 701.972 760.104 672.636C730.191 643.831 700.9 598.783 700.9 531.5H658.9ZM774.09 325.123C770.959 327.176 765.131 330.996 757.813 336.546L783.19 370.012C789.336 365.352 794.197 362.163 797.122 360.244L774.09 325.123ZM775.413 324.251C775.099 324.461 774.689 324.73 774.089 325.123L797.122 360.244C797.671 359.884 798.243 359.509 798.731 359.183L775.413 324.251ZM775.226 324.409C775.317 324.338 775.394 324.281 775.452 324.237C775.51 324.194 775.557 324.159 775.591 324.135C775.656 324.088 775.691 324.063 775.687 324.066C775.684 324.068 775.661 324.084 775.611 324.118C775.563 324.151 775.498 324.195 775.413 324.251L798.731 359.183C799.146 358.907 800.087 358.28 800.974 357.591L775.226 324.409ZM756.945 335.057C761.717 340.589 766.375 346.563 770.878 353.016L805.322 328.984C800 321.356 794.461 314.247 788.748 307.624L756.945 335.057ZM692.826 285.434C714.588 296.097 736.886 311.802 756.945 335.057L788.748 307.624C764.623 279.654 737.63 260.616 711.306 247.718L692.826 285.434ZM623.505 264.901C643.132 267.468 667.69 273.118 692.826 285.434L711.306 247.718C681.073 232.905 651.861 226.252 628.951 223.256L623.505 264.901ZM589.8 262.8C596.95 262.8 608.767 262.974 623.505 264.901L628.951 223.256C611.666 220.995 597.828 220.8 589.8 220.8V262.8ZM482.106 289.782C515.327 276.62 550.782 262.8 589.8 262.8V220.8C541.617 220.8 499.015 237.907 466.635 250.736L482.106 289.782ZM420.475 308.479C439.834 306.743 461.814 297.822 482.106 289.782L466.635 250.736C444.141 259.648 428.635 265.579 416.725 266.647L420.475 308.479ZM413.5 308.8C415.845 308.8 418.173 308.685 420.475 308.479L416.725 266.647C415.549 266.752 414.477 266.8 413.5 266.8V308.8ZM389.68 305.743C397.368 307.57 405.379 308.8 413.5 308.8V266.8C409.548 266.8 404.911 266.193 399.39 264.881L389.68 305.743ZM342.849 289.326C358.159 295.508 374.362 302.103 389.68 305.743L399.39 264.881C387.775 262.121 374.718 256.9 358.576 250.382L342.849 289.326ZM299.692 273.425C314.471 277.881 328.609 283.576 342.849 289.326L358.576 250.382C344.577 244.729 328.711 238.307 311.817 233.213L299.692 273.425ZM291.723 271.169C294.387 271.872 297.043 272.626 299.692 273.425L311.817 233.213C308.738 232.285 305.611 231.396 302.438 230.559L291.723 271.169ZM386.957 169.296C386.614 170.809 386.287 172.328 385.978 173.852L427.136 182.217C427.383 181.003 427.644 179.791 427.918 178.58L386.957 169.296ZM385.976 173.86L385.948 173.999L427.11 182.347L427.138 182.209L385.976 173.86ZM385.946 174.007C383.492 186.129 382.1 198.631 382.1 211.3H424.1C424.1 201.701 425.156 191.999 427.111 182.339L385.946 174.007ZM382.1 211.3C382.1 220.893 383.629 230.34 384.58 234.301L425.42 224.499C425.426 224.526 425.399 224.411 425.343 224.131C425.291 223.866 425.224 223.51 425.149 223.07C424.998 222.188 424.827 221.058 424.667 219.762C424.34 217.12 424.1 214.112 424.1 211.3H382.1ZM401.13 250.04C403.949 250.569 407.748 251.124 411.918 251.439L415.082 209.558C412.595 209.37 410.329 209.033 408.87 208.76L401.13 250.04ZM411.918 251.439C414.005 251.596 416.264 251.7 418.6 251.7V209.7C417.487 209.7 416.298 209.65 415.082 209.558L411.918 251.439ZM418.6 251.7C445.002 251.7 473.26 243.187 498.884 229.961L479.62 192.639C458.117 203.738 436.501 209.7 418.6 209.7V251.7ZM498.884 229.961C501.489 228.616 504.076 227.218 506.641 225.77L485.985 189.2C483.876 190.391 481.753 191.538 479.62 192.639L498.884 229.961ZM506.641 225.77C513.824 221.713 520.846 217.25 527.612 212.435L503.26 178.215C497.685 182.183 491.897 185.861 485.985 189.2L506.641 225.77ZM527.612 212.435C543.601 201.056 558.356 187.568 570.444 172.587L537.756 146.213C528.355 157.866 516.509 168.786 503.26 178.215L527.612 212.435ZM570.157 172.934C577.923 163.719 585.14 153.731 591.657 143.152L555.898 121.123C550.444 129.976 544.44 138.276 538.042 145.866L570.157 172.934ZM591.657 143.152C594.705 138.204 597.604 133.121 600.336 127.922L563.158 108.382C560.871 112.733 558.446 116.986 555.898 121.123L591.657 143.152ZM600.336 127.922C614.93 100.154 624.951 68.7513 627.539 36.4706L585.674 33.1143C583.593 59.0629 575.448 84.9993 563.158 108.382L600.336 127.922ZM627.539 36.4707C627.975 31.039 628.2 25.5773 628.2 20.1H586.2C586.2 24.426 586.022 28.7677 585.674 33.1143L627.539 36.4707ZM628.2 20.1C628.2 12.0336 627.536 3.19039 625.792 -4.5929L584.808 4.5929C585.664 8.40961 586.2 13.9664 586.2 20.1H628.2ZM604.512 -20.9852C583.527 -20.1972 561.787 -15.0069 540.984 -6.85396L556.31 32.25C573.684 25.4408 590.746 21.5613 606.088 20.9852L604.512 -20.9852ZM540.984 -6.85396C534.792 -4.4271 528.651 -1.72546 522.602 1.22297L541.004 38.977C546.076 36.505 551.191 34.2563 556.31 32.25L540.984 -6.85396ZM522.602 1.22298C508.25 8.21829 494.337 16.641 481.415 26.1653L506.334 59.9742C517.214 51.9552 528.946 44.8542 541.004 38.977L522.602 1.22298ZM481.415 26.1653C466.993 36.795 453.665 48.9012 442.296 62.0868L474.104 89.5132C483.216 78.946 494.172 68.9386 506.334 59.9742L481.415 26.1653ZM442.432 61.9301C430.976 74.9542 419.926 90.5835 410.492 107.903L447.374 127.995C455.339 113.374 464.603 100.316 473.968 89.6699L442.432 61.9301ZM410.492 107.903C408.706 111.18 406.976 114.523 405.31 117.925L443.029 136.398C444.424 133.55 445.875 130.747 447.374 127.995L410.492 107.903ZM405.31 117.925C403.175 122.284 401.144 126.743 399.236 131.29L437.964 147.543C439.549 143.765 441.243 140.046 443.029 136.398L405.31 117.925ZM399.236 131.29C394.165 143.374 389.942 156.125 386.957 169.296L427.918 178.58C430.312 168.018 433.744 157.598 437.964 147.543L399.236 131.29ZM757.813 336.546C729.997 357.639 678.924 405.011 663.437 483.958L704.652 492.042C717.298 427.575 759.178 388.221 783.19 370.012L757.813 336.546ZM663.437 483.958C660.532 498.772 658.9 514.615 658.9 531.5H700.9C700.9 517.338 702.267 504.202 704.652 492.042L663.437 483.958ZM121.678 860.921C108.913 842.767 96.6168 822.137 85.2596 799.637L47.7654 818.563C59.9461 842.694 73.271 865.097 87.3217 885.079L121.678 860.921ZM85.2596 799.637C47.518 724.866 21 631.171 21 541.9H-21C-21 638.799 7.57571 738.942 47.7654 818.563L85.2596 799.637Z" fill="white" mask="url(#path-1-inside-1_147_114)"/>
</svg>
